<svg height="512" viewBox="0 0 512 512" width="512" xmlns="http://www.w3.org/2000/svg"><path d="m365.255 210.745a22.627 22.627 0 0 1 0-32l96-96a22.628 22.628 0 0 0 0-32 22.628 22.628 0 0 0 -32 0l-48 48a22.627 22.627 0 0 1 -32 0 22.627 22.627 0 0 1 0-32 22.628 22.628 0 0 0 0-32 22.628 22.628 0 0 0 -32 0l-256 256a113.137 113.137 0 0 0 0 160 113.137 113.137 0 0 0 160 0l208-208a22.628 22.628 0 0 0 0-32 22.628 22.628 0 0 0 -32 0 22.627 22.627 0 0 1 -32 0z" fill="#2887c3"/><rect fill="#28c3e1" height="45.255" rx="22.627" transform="matrix(.707 .707 -.707 .707 192 -170.039)" width="45.255" x="278.627" y="124.118"/><rect fill="#2887c3" height="45.255" rx="22.627" transform="matrix(.707 .707 -.707 .707 261.49 -273.803)" width="45.255" x="438.627" y="156.118"/><path d="m317.255 258.745a22.627 22.627 0 0 1 0-32 22.628 22.628 0 0 0 0-32 22.628 22.628 0 0 0 -32 0l-32 32a22.627 22.627 0 0 1 -32 0 22.628 22.628 0 0 0 -32 0l-32 32a112.958 112.958 0 0 0 -96 32 113.137 113.137 0 0 0 0 160 113.137 113.137 0 0 0 160 0 112.961 112.961 0 0 0 32-96l64-64a22.628 22.628 0 0 0 0-32zm-120 168a79.2 79.2 0 0 1 -112 0 79.2 79.2 0 0 1 0-112 79.2 79.2 0 0 1 112 0 79.2 79.2 0 0 1 0 112z" fill="#28c3e1"/><path d="m197.255 314.745a79.2 79.2 0 0 0 -112 0 79.2 79.2 0 0 0 0 112 79.2 79.2 0 0 0 112 0 79.2 79.2 0 0 0 0-112z" fill="#aaebf0"/><g fill="#28c3e1"><circle cx="113.255" cy="342.745" r="20"/><circle cx="137.255" cy="406.745" r="12"/><circle cx="181.255" cy="346.745" r="8"/></g></svg>