<svg height="499pt" viewBox="0 -5 499.11182 499" width="499pt" xmlns="http://www.w3.org/2000/svg" xmlns:xlink="http://www.w3.org/1999/xlink"><linearGradient id="a"><stop offset="0" stop-color="#003f8a"/><stop offset=".518" stop-color="#00d7df"/><stop offset="1" stop-color="#006df0"/></linearGradient><linearGradient id="b" gradientUnits="userSpaceOnUse" x1="3.665531" x2="513.993531" xlink:href="#a" y1="512.350202" y2="2.022202"/><linearGradient id="c" gradientUnits="userSpaceOnUse" x1="-5.390469" x2="504.937531" xlink:href="#a" y1="503.294202" y2="-7.033798"/><linearGradient id="d" gradientUnits="userSpaceOnUse" x1="-4.758469" x2="505.569531" xlink:href="#a" y1="503.926202" y2="-6.401798"/><linearGradient id="e" gradientUnits="userSpaceOnUse" x1="47.241531" x2="557.569531" xlink:href="#a" y1="555.926202" y2="45.598202"/><linearGradient id="f" gradientUnits="userSpaceOnUse" x1="-68.758469" x2="441.569531" xlink:href="#a" y1="439.926202" y2="-70.401798"/><linearGradient id="g" gradientUnits="userSpaceOnUse" x1="-88.758469" x2="421.569531" xlink:href="#a" y1="419.926202" y2="-90.401798"/><linearGradient id="h" gradientUnits="userSpaceOnUse" x1="91.241531" x2="601.569531" xlink:href="#a" y1="599.926202" y2="89.598202"/><linearGradient id="i" gradientUnits="userSpaceOnUse" x1="95.241531" x2="605.569531" xlink:href="#a" y1="603.926202" y2="93.598202"/><linearGradient id="j" gradientUnits="userSpaceOnUse" x1="71.241531" x2="581.569531" xlink:href="#a" y1="579.926202" y2="69.598202"/><linearGradient id="k" gradientUnits="userSpaceOnUse" x1="99.241531" x2="609.569531" xlink:href="#a" y1="607.926202" y2="97.598202"/><linearGradient id="l" gradientUnits="userSpaceOnUse" x1="-36.758469" x2="473.569531" xlink:href="#a" y1="471.926202" y2="-38.401798"/><linearGradient id="m" gradientUnits="userSpaceOnUse" x1="-40.758469" x2="469.569531" xlink:href="#a" y1="467.926202" y2="-42.401798"/><path d="m261.832031 333.582031c-1.070312-3.296875-4.140625-5.527343-7.605469-5.527343h-88.242187l-27.261719-83.914063c-1.082031-3.28125-4.144531-5.5-7.601562-5.5-3.457032 0-6.519532 2.21875-7.597656 5.5l-27.28125 83.914063h-88.242188c-3.464844 0-6.535156 2.230468-7.609375 5.527343-1.070313 3.296875.101563 6.90625 2.90625 8.945313l71.382813 51.863281-27.261719 83.910156c-1.078125 3.300781.09375 6.914063 2.898437 8.957031 2.808594 2.039063 6.609375 2.039063 9.414063-.003906l71.382812-51.863281 71.382813 51.863281c2.804687 2.035156 6.597656 2.035156 9.402344 0 2.800781-2.03125 3.976562-5.640625 2.910156-8.9375l-27.261719-83.925781 71.382813-51.863281c2.804687-2.039063 3.976562-5.648438 2.902343-8.945313zm-88.398437 51.273438c-2.800782 2.035156-3.972656 5.640625-2.902344 8.933593l21.445312 66.023438-56.160156-40.796875c-2.804687-2.039063-6.601562-2.039063-9.40625 0l-56.160156 40.796875 21.449219-66.023438c1.066406-3.292968-.105469-6.898437-2.90625-8.933593l-56.175781-40.800781h69.433593c3.464844 0 6.535157-2.230469 7.605469-5.527344l21.457031-66.023438 21.457031 66.023438c1.070313 3.296875 4.140626 5.527344 7.605469 5.527344h69.433594zm0 0" fill="url(#b)"/><path d="m138.722656 321.804688c-.777344-2.84375-3.054687-5.035157-5.929687-5.695313s-5.882813.316406-7.820313 2.539063c-1.9375 2.222656-2.496094 5.335937-1.449218 8.09375l11.589843 35.785156c1.070313 3.296875 4.140625 5.527344 7.609375 5.527344h37.597656c4.417969 0 8-3.582032 8-8 0-4.417969-3.582031-8-8-8h-31.765624zm0 0" fill="url(#c)"/><path d="m496.769531 2.398438c-3.125-3.125-8.1875-3.125-11.3125 0l-304 304c-2.078125 2.007812-2.914062 4.984374-2.179687 7.78125.730468 2.796874 2.914062 4.980468 5.710937 5.710937 2.796875.734375 5.773438-.101563 7.78125-2.179687l304-304c3.125-3.125 3.125-8.1875 0-11.3125zm0 0" fill="url(#d)"/><path d="m341.457031 250.398438-56 56c-2.078125 2.007812-2.914062 4.984374-2.179687 7.78125.730468 2.796874 2.914062 4.980468 5.710937 5.710937 2.796875.734375 5.773438-.101563 7.78125-2.179687l56-56c3.03125-3.140626 2.988281-8.128907-.097656-11.214844-3.085937-3.085938-8.074219-3.128906-11.214844-.097656zm0 0" fill="url(#e)"/><path d="m371.113281 240.054688c2.121094 0 4.15625-.84375 5.65625-2.34375l36-36c3.03125-3.140626 2.988281-8.128907-.097656-11.214844-3.085937-3.085938-8.074219-3.128906-11.214844-.097656l-36 36c-2.285156 2.289062-2.972656 5.726562-1.734375 8.71875 1.238282 2.988281 4.15625 4.9375 7.390625 4.9375zm0 0" fill="url(#e)"/><path d="m207.113281 172.054688c2.121094 0 4.15625-.84375 5.65625-2.34375l56-56c3.03125-3.140626 2.988281-8.128907-.097656-11.214844-3.085937-3.085938-8.074219-3.128906-11.214844-.097656l-56 56c-2.285156 2.289062-2.972656 5.726562-1.734375 8.71875 1.238282 2.988281 4.15625 4.9375 7.390625 4.9375zm0 0" fill="url(#f)"/><path d="m147.113281 232.054688c2.121094 0 4.15625-.84375 5.65625-2.34375l36-36c3.03125-3.140626 2.988281-8.128907-.097656-11.214844-3.085937-3.085938-8.074219-3.128906-11.214844-.097656l-36 36c-2.285156 2.289062-2.972656 5.726562-1.734375 8.71875 1.238282 2.988281 4.15625 4.9375 7.390625 4.9375zm0 0" fill="url(#f)"/><path d="m19.113281 320.054688c2.121094 0 4.15625-.84375 5.65625-2.34375l12-12c3.03125-3.140626 2.988281-8.128907-.097656-11.214844-3.085937-3.085938-8.074219-3.128906-11.214844-.097656l-12 12c-2.285156 2.289062-2.972656 5.726562-1.734375 8.71875 1.238282 2.988281 4.15625 4.9375 7.390625 4.9375zm0 0" fill="url(#g)"/><path d="m51.113281 288.054688c2.121094 0 4.15625-.84375 5.65625-2.34375l24-24c3.03125-3.140626 2.988281-8.128907-.097656-11.214844-3.085937-3.085938-8.074219-3.128906-11.214844-.097656l-24 24c-2.285156 2.289062-2.972656 5.726562-1.734375 8.71875 1.238282 2.988281 4.15625 4.9375 7.390625 4.9375zm0 0" fill="url(#g)"/><path d="m237.457031 442.398438-16 16c-2.078125 2.007812-2.914062 4.984374-2.179687 7.78125.730468 2.796874 2.914062 4.980468 5.710937 5.710937 2.796875.734375 5.773438-.101563 7.78125-2.179687l16-16c3.03125-3.140626 2.988281-8.128907-.097656-11.214844-3.085937-3.085938-8.074219-3.128906-11.214844-.097656zm0 0" fill="url(#h)"/><path d="m333.457031 354.398438-72 72c-2.078125 2.007812-2.914062 4.984374-2.179687 7.78125.730468 2.796874 2.914062 4.980468 5.710937 5.710937 2.796875.734375 5.773438-.101563 7.78125-2.179687l72-72c3.03125-3.140626 2.988281-8.128907-.097656-11.214844-3.085937-3.085938-8.074219-3.128906-11.214844-.097656zm0 0" fill="url(#i)"/><path d="m365.457031 285.710938c3.125 3.121093 8.1875 3.121093 11.3125 0l16-16c3.03125-3.140626 2.988281-8.128907-.097656-11.214844-3.085937-3.085938-8.074219-3.128906-11.214844-.097656l-16 16c-3.121093 3.125-3.121093 8.1875 0 11.3125zm0 0" fill="url(#j)"/><path d="m473.457031 222.398438-108 108c-2.078125 2.007812-2.914062 4.984374-2.179687 7.78125.730468 2.796874 2.914062 4.980468 5.710937 5.710937 2.796875.734375 5.773438-.101563 7.78125-2.179687l108-108c3.03125-3.140626 2.988281-8.128907-.097656-11.214844-3.085937-3.085938-8.074219-3.128906-11.214844-.097656zm0 0" fill="url(#k)"/><path d="m203.113281 240.054688c2.121094 0 4.15625-.84375 5.65625-2.34375l28-28c3.03125-3.140626 2.988281-8.128907-.097656-11.214844-3.085937-3.085938-8.074219-3.128906-11.214844-.097656l-28 28c-2.285156 2.289062-2.972656 5.726562-1.734375 8.71875 1.238282 2.988281 4.15625 4.9375 7.390625 4.9375zm0 0" fill="url(#l)"/><path d="m315.113281 120.054688c2.121094 0 4.15625-.84375 5.65625-2.34375l44-44c3.03125-3.140626 2.988281-8.128907-.097656-11.214844-3.085937-3.085938-8.074219-3.128906-11.214844-.097656l-44 44c-2.285156 2.289062-2.972656 5.726562-1.734375 8.71875 1.238282 2.988281 4.15625 4.9375 7.390625 4.9375zm0 0" fill="url(#m)"/></svg>